# xmcd
#
# Track frame offsets:
#	150
#	11702
#	25969
#	36410
#	49964
#	61778
#	74648
#	87680
#	101582
#	114121
#	128324
#	140781
#	154180
#	172405
#	185362
#	200150
#	217180
#	233454
#	246582
#	270689
#	286791
#	302852
#	316564
#
# Disc length: 4412 seconds
#
# Revision: 0
# Processed by: cddbd v1.5.2PL0 Copyright (c) Steve Scherf et al.
# Submitted via: EasyCDDAExtractor 15.2.5.1
#
DISCID=5b113a17
DTITLE=Johnny Cash - Top 40 
DYEAR=2016
DGENRE=Country
TTITLE0=A Thing Called Love
TTITLE1=She Used To Love Me a Lot
TTITLE2=Kate
TTITLE3=The Chicken In Black
TTITLE4=Flesh And Blood
TTITLE5=Wanted Man
TTITLE6=Man In Black
TTITLE7=Oney
TTITLE8=Any Old Wind That Blows
TTITLE9=Ragged Old Flag
TTITLE10=The Lady Came From Baltimore
TTITLE11=Look At Them Beans
TTITLE12=One Piece At A Time
TTITLE13=I Would Like to see You Again
TTITLE14=There Ain't No Good Chain Gang
TTITLE15=Ghost Riders In The Sky
TTITLE16=The Baron
TTITLE17=The General Lee
TTITLE18=Highway Patrolman
TTITLE19=Johnny 99
TTITLE20=I Will Dance With You
TTITLE21=Highwayman
TTITLE22=Silver Stallion
EXTD=
EXTT0=
EXTT1=
EXTT2=
EXTT3=
EXTT4=
EXTT5=
EXTT6=
EXTT7=
EXTT8=
EXTT9=
EXTT10=
EXTT11=
EXTT12=
EXTT13=
EXTT14=
EXTT15=
EXTT16=
EXTT17=
EXTT18=
EXTT19=
EXTT20=
EXTT21=
EXTT22=
PLAYORDER=
